<?xml version="1.0" encoding="utf-8"?>
<!-- Generator: Adobe Illustrator 21.0.2, SVG Export Plug-In . SVG Version: 6.00 Build 0)  -->
<svg version="1.1" id="图层_1" xmlns="http://www.w3.org/2000/svg" xmlns:xlink="http://www.w3.org/1999/xlink" x="0px" y="0px"
	 viewBox="0 0 60 80" style="enable-background:new 0 0 60 80;" xml:space="preserve">
<g>
	<g>
		<path d="M31.5,12c-7.4,0-13.6,2.7-18.2,7.6c-7.3,7.7-8.2,21.3-2.1,29.8c6.4,8.9,18.5,13.7,28.8,9c10.5-4.9,18.2-17.8,14.7-29.3
			c-1.5-4.8-4.6-9.9-8.8-12.6C41.7,13.9,36.5,11.5,31.5,12c-1.9,0.2-1.9,3.2,0,3c9.4-0.9,18.4,7,20.6,15.8C55.6,45,39.3,62.4,25,56
			c-5.6-2.5-10.3-5.9-13.1-11.5c-3-5.8-1.7-12.7,0.8-18.5C15.8,18.5,23.7,15,31.5,15C33.4,15,33.4,12,31.5,12L31.5,12z"/>
	</g>
</g>
<g>
	<g>
		<path d="M30,20.5c-2.2,0-5.1,0.7-6.8,2c-2.1,1.7-1.7,4.3,0.1,5.9c0.9,0.8,2,1,3.2,1c1.2,0,2.2,0.1,3.3-0.5
			c2.3-1.4,1.6-4.3,1.6-6.6c0-1.9-3-1.9-3,0c0,0.6,0,1.2,0,1.8c0,0.5,0.2,1.6,0,2.1c-0.2,0.4,0.1,0.1-0.3,0.2c-0.3,0.1-0.5,0-0.8,0
			c-0.6,0-1.4,0.2-1.9-0.1c-1.5-0.9,0-1.8,0.9-2.1c1.1-0.4,2.4-0.8,3.6-0.8C31.9,23.5,31.9,20.5,30,20.5L30,20.5z"/>
	</g>
</g>
<g>
	<g>
		<path d="M35.2,22.4c-0.1-0.2,0-0.1,0,0.1c0,0.2,0,0.3,0,0.5c0,0.5,0.2,1,0.3,1.6c0.2,1,0.5,2.1,0.6,3.2c0.2,1.9,3.2,1.9,3,0
			c-0.1-1.3-0.4-2.7-0.7-4c-0.2-0.9,0-2.1-0.5-2.9C36.7,19.3,34.1,20.8,35.2,22.4L35.2,22.4z"/>
	</g>
</g>
<g>
	<g>
		<path d="M15,39.7c5.6-2.2,13.1-1.6,18.9-1.7c5-0.1,9.9-1.1,14.9-1.1c1.9,0,1.9-3,0-3C43.4,33.9,38,35,32.5,35
			c-5.6,0-12.9-0.3-18.2,1.8C12.5,37.5,13.2,40.4,15,39.7L15,39.7z"/>
	</g>
</g>
<g>
	<g>
		<path d="M17.8,38.5c0,0.8-0.1,1.6,0.1,2.4c0.1,0.5,0.2,1,0.3,1.5c0,0.3-0.1,0.5,0.1,0.8c0.5,0.7,2.3,0.3,3,0.3
			c0.9,0,1.9,0.1,2.8,0c0.3,0,0.6-0.1,0.8-0.4c0.3-0.5,0-1.5,0-1.9c0-1.1,0-2.3,0-3.4c0-0.4-0.6-0.4-0.6,0c0,1.4,0.1,2.9,0,4.4
			c0,0.6,0.1,0.6-0.6,0.7c-0.7,0.1-1.4,0-2.1,0c-0.6,0-1.2,0.1-1.7,0c-0.4,0-0.4,0.1-0.7-0.2c-0.4-0.3-0.1-0.3-0.2-0.7
			c-0.3-1.2-0.4-2.4-0.4-3.6C18.4,38.1,17.8,38.1,17.8,38.5L17.8,38.5z"/>
	</g>
</g>
<g>
	<g>
		<path d="M24.6,42.3c1.4,0,2.8,0,4.3,0c0.8,0,2.5,0.4,3.2-0.1c0.4-0.3,0.3-0.6,0.3-1c-0.1-0.6-0.2-1.2-0.2-1.8
			c0-0.6,0.1-1.3,0.1-1.9c0-0.4-0.6-0.4-0.6,0c0,1-0.2,1.9-0.1,2.9c0,0.3,0.2,0.6,0.2,0.8c-0.1,0.7-0.5,0.6-1.2,0.6
			c-2,0-3.9,0-5.9,0C24.2,41.7,24.2,42.3,24.6,42.3L24.6,42.3z"/>
	</g>
</g>
<g>
	<g>
		<path d="M31.7,41.7c0.3,0.8,0.6,1.2,1.5,1.2c0.7,0,1.4,0,2.2,0c0.6,0,1.5,0.2,2.1,0c0.7-0.2,0.6-0.9,0.7-1.6
			c0.3-1.5,0.8-2.8,0.9-4.3c0-0.4-0.6-0.4-0.6,0c-0.1,1.5-0.4,3.3-0.9,4.7c-0.2,0.6-0.3,0.5-0.9,0.6c-0.4,0.1-0.9,0-1.3,0
			c-0.9,0-2.6,0.3-3.1-0.8C32.1,41.2,31.6,41.3,31.7,41.7L31.7,41.7z"/>
	</g>
</g>
<g>
	<g>
		<path d="M38,41.4c1.2,0,2.4,0.1,3.6-0.1c0.5-0.1,1.2-0.1,1.5-0.4c0.5-0.5,0.4-1.3,0.6-1.9c0.2-0.9,0.7-1.7,0.7-2.6
			c0-0.4-0.6-0.4-0.6,0c-0.1,0.7-0.4,1.4-0.6,2.1c-0.1,0.5-0.2,1.9-0.7,2.1c-0.5,0.3-1.5,0.2-2,0.2c-0.8,0-1.7,0-2.5,0
			C37.6,40.8,37.6,41.4,38,41.4L38,41.4z"/>
	</g>
</g>
<g>
	<g>
		<path d="M43.8,40.3c0.5,0,0.9,0,1.4-0.1c0.5-0.1,1.4,0.2,1.9-0.1c0.4-0.3,0.1-0.8,0.1-1.2c0-0.9,0-1.8,0-2.6c0-0.4-0.6-0.4-0.6,0
			c0,0.6,0,1.3,0,1.9c0,0.4,0.2,1.3-0.1,1.4c-0.2,0.1-0.6,0-0.9,0c-0.2,0-0.4,0-0.6,0.1c-0.4,0.1-0.7,0-1.2,0
			C43.4,39.7,43.4,40.3,43.8,40.3L43.8,40.3z"/>
	</g>
</g>
<g>
	<g>
		<path d="M14.4,41.4c3.9,7.3,12.8,8.9,20.2,8c3.5-0.4,8.8-0.8,11.4-3.5c2.4-2.4,2.8-6.6,3.2-9.9c0-0.4-0.6-0.4-0.6,0
			c-0.5,4.1-1.3,9.4-5.7,11.1c-3.3,1.2-7.7,1.8-11.1,1.9c-6.4,0.1-13.6-1.7-16.9-7.9C14.7,40.8,14.2,41.1,14.4,41.4L14.4,41.4z"/>
	</g>
</g>
<g>
	<g>
		<path d="M24,48.1c0.1-1.3,2.5-1.2,3.2-1.2c0.7,0,1.4-0.1,2,0.2c0.7,0.3,0.9,1.4,1.1,2.1c0.1,0.4,0.7,0.2,0.6-0.2
			c-0.2-0.8-0.4-2.1-1.2-2.6c-0.7-0.5-2.1-0.2-2.9-0.2c-1.2,0-3.3,0.2-3.4,1.8C23.4,48.5,24,48.5,24,48.1L24,48.1z"/>
	</g>
</g>
<g>
	<g>
		<path d="M30.4,47.5c1,0,2-0.3,3-0.4c0.2,0,0.4-0.1,0.6,0c0,0,0.2,0.5,0.3,0.6c0.2,0.4,0.1,0.8,0.4,1.1c0.2,0.3,0.7,0,0.5-0.3
			c-0.4-0.6-0.2-1.9-1.1-2.1c-0.2-0.1-0.4,0.1-0.5,0.1c-0.4,0.1-0.9,0.1-1.3,0.1C31.6,46.7,31,47,30.4,47C30,46.9,30,47.5,30.4,47.5
			L30.4,47.5z"/>
	</g>
</g>
<g>
	<g>
		<path d="M34.3,47.2c0.6-1,2.7-0.6,3.7-0.6c0.5,0,0.8-0.2,1.1,0.4c0.2,0.4,0.2,0.9,0.3,1.3c0.1,0.4,0.6,0.2,0.6-0.2
			c-0.1-0.5-0.1-1.6-0.4-1.9c-0.3-0.4-1.1-0.2-1.5-0.2c-1.4,0.1-3.4-0.5-4.3,0.9C33.5,47.2,34.1,47.5,34.3,47.2L34.3,47.2z"/>
	</g>
</g>
<g>
	<g>
		<path d="M39.6,46.8c0.1-0.2,0.7-0.2,0.9-0.3c0.4-0.1,0.7-0.3,1.1-0.4c0.7-0.2,1.1,0.6,1.7,1c0.3,0.2,0.6-0.3,0.3-0.5
			c-0.7-0.5-1.1-1.4-2.1-1.1c-0.6,0.2-1,0.4-1.6,0.5c-0.4,0.1-0.7,0.1-0.9,0.5C38.9,46.8,39.5,47.1,39.6,46.8L39.6,46.8z"/>
	</g>
</g>
<g>
	<g>
		<path d="M28.9,19.1c-4.9-2.2-11.1-3.5-16.5-3.8c-0.4,0-0.4,0.6,0,0.6c5.2,0.3,11.4,1.6,16.2,3.7C28.9,19.8,29.3,19.3,28.9,19.1
			L28.9,19.1z"/>
	</g>
</g>
<g>
	<g>
		<path d="M36.5,19.1c2.6-2.2,5.8-3.3,9-4.5c1.8-0.7,4.1-0.9,5.8-1.8c0.3-0.2,0-0.7-0.3-0.5c-2.3,1.3-5.4,1.7-7.9,2.6
			c-2.5,1-4.9,2.1-7,3.8C35.7,18.9,36.2,19.3,36.5,19.1L36.5,19.1z"/>
	</g>
</g>
<g>
	<g>
		<path d="M28.6,19.2c-2-3.4-8.1-6.7-11.5-8.3c-4.5-2.1-9.9-3.3-14.4-0.6c-0.2,0.1-0.2,0.5,0.1,0.5c1.1,0.3-0.1-0.1,1.6,0.2
			c0.4,0,0.7,0,1.1,0c1.9-0.4,2.5-0.2,1.7,0.5c0-0.1-0.7,1.1-0.7,1.4c0,0.1,0.1,0.3,0.2,0.3c0.5,0.1,3,0.1,3,0.1
			c-0.2-0.7-2.6,1.8-1.6,0.9c-0.1,0.1-0.1,0.2-0.1,0.3c0.8,2.2,3.1-0.4,3.9,1.3c0.2,0.3,0.7,0,0.5-0.3c-0.2-0.3-0.1-0.6-0.3-0.9
			c-0.1-0.1-0.2-0.2-0.3-0.1c-0.9,0.2-2.6-0.4-1.4-1.1c0.3-0.2,0.1-0.5-0.2-0.6c-0.7-0.1-3.5,0.1-2.2-1.5c0.1-0.2,0.1-0.5-0.1-0.5
			C7,10.6,4.8,11,4,10.5c-1.3,0.1-0.6-0.2,2-0.9c1.1-0.1,2.1-0.2,3.2-0.3c1.8,0.1,3.8,0.6,5.5,1.2c4.1,1.5,11.1,4.9,13.5,8.9
			C28.3,19.8,28.8,19.5,28.6,19.2L28.6,19.2z"/>
	</g>
</g>
<g>
	<g>
		<path d="M36.5,18.8c3.5-5.2,9.3-9,14.7-11.9c1.2-0.6,2.4-1.1,3.6-1.7c0.7-0.3,2.9-1.8,1.2-0.5c-1,0.8-3,1.8-3.6,3.1
			c-0.1,0.2,0,0.4,0.2,0.4c2.8,0.7-2.9,2.1-3.3,2.2c-0.3,0.1-0.3,0.5,0,0.6c0.6,0.2,1.5,0.3,1,1.1c-0.2,0.3,0.3,0.6,0.5,0.3
			c0.4-0.8,0.4-1.1,0-1.7c-0.3-0.4-2.1,0.3,0.1,0c0.7-0.1,3-0.3,3.5-1.1c0.5-0.7,0.2-0.6,0-1.3c-0.5-1.5-1.9,0.6-0.7-0.9
			c0.9-1.2,2.5-1.9,3.6-2.9c0.2-0.2,0.1-0.5-0.2-0.5c-3.9,0.2-8.2,3.5-11.3,5.6c-3.7,2.5-7.4,5.2-9.9,9.1
			C35.7,18.8,36.3,19.1,36.5,18.8L36.5,18.8z"/>
	</g>
</g>
<g>
	<g>
		<path d="M28.3,24.5c-0.3,0-0.6,0-0.8,0.2c-0.1,0.2-0.2,0.6,0,0.8c0.3,0.4,1.1,0.3,1.3-0.2c0.2-0.6-0.7-0.9-1.1-0.6
			c-0.2,0.1-0.2,0.5-0.1,0.7c0.2,0.2,0.5,0.3,0.7,0.2c0.4-0.1,0.2-0.6-0.2-0.6c-0.1,0-0.1,0.1-0.1,0.2c0,0,0.1-0.1,0.1-0.1
			c0,0-0.1,0-0.1,0.1c0,0.1-0.1-0.1-0.1,0c0.1,0,0.2,0,0.3,0C28.7,25.1,28.7,24.5,28.3,24.5L28.3,24.5z"/>
	</g>
</g>
<g>
	<g>
		<path d="M34.3,70.1c-0.1,1.6-1.7,6.1,0.3,6.7c0.9,0.3,3.3-2,3.8-2.7c0.7-0.9,1.4-2,1-3.2c-0.1-0.2-0.2-0.2-0.4-0.2
			c-1.2,0.2-1.9,2.6-0.9,3.3c0.4,0.3,1.2,0.1,1.7,0c0.9-0.3,0.8-0.8,1.5-1.1c0.3-0.1,0-1.3,0.2-0.2c0,0.3,0.4,0.3,0.5,0.1
			c0.5-0.8,1.6-4,2.5-2c0.1,0.1,0.3,0.2,0.4,0.1c1-0.7,0.2-0.5,1.1-1.2c2.7-2.1-1.3,0.1,0.7-0.3c0,0,0.7,0.4,0.9,0.4
			c1.6,0.1,1.2-2.2,2.8-1.6c1.2,0.5,1.9,1.7,3.4,2.1c0.2,0.1,0.4-0.1,0.4-0.4c-0.2-0.8-0.1-0.6-0.7-1.2c-0.3-0.3-0.7,0.1-0.4,0.4
			c-1.1-0.2-1.9-0.8-2.5-1.7c-0.1-0.2-0.3-0.3-0.5-0.5c-0.2-0.1-0.4-0.1-0.5,0.1c-0.5,0.7-2.3,2.5-2.8,1c-0.1-0.2-0.4-0.3-0.5-0.1
			c-0.5,0.9-1.3,2.2-2,1c-0.1-0.1-0.2-0.2-0.3-0.1c-1,0.3-2,2.1-2,3c0-0.3-0.4-0.4-0.6-0.2c-0.3,0.5-5.1,4.1-5.9,4
			c-1.4-0.2-1,0-1.2-1.4c-0.2-1.3,0.4-2.8,0.5-4.2C35,69.7,34.4,69.7,34.3,70.1L34.3,70.1z"/>
	</g>
</g>
<g>
	<g>
		<path d="M51.8,66.9c0,0.9-0.6,1.8-0.5,2.8c0,0.4,0.6,0.4,0.6,0c-0.1-0.9,0.5-1.8,0.5-2.8C52.4,66.5,51.8,66.5,51.8,66.9L51.8,66.9
			z"/>
	</g>
</g>
<g>
	<g>
		<path d="M55.1,69.2c0.4,0,0.4-0.6,0-0.6C54.7,68.6,54.7,69.2,55.1,69.2L55.1,69.2z"/>
	</g>
</g>
</svg>
