<?xml version="1.0" encoding="utf-8"?>
<!-- Generator: Adobe Illustrator 21.0.2, SVG Export Plug-In . SVG Version: 6.00 Build 0)  -->
<svg version="1.1" id="图层_1" xmlns="http://www.w3.org/2000/svg" xmlns:xlink="http://www.w3.org/1999/xlink" x="0px" y="0px"
	 viewBox="0 0 60 80" style="enable-background:new 0 0 60 80;" xml:space="preserve">
<g>
	<g>
		<path d="M31.5,12c-7.4,0-13.6,2.7-18.2,7.6c-7.3,7.7-8.2,21.3-2.1,29.8c6.4,8.9,18.5,13.7,28.8,9c10.5-4.9,18.2-17.8,14.7-29.3
			c-1.5-4.8-4.6-9.9-8.8-12.6C41.7,13.9,36.5,11.5,31.5,12c-1.9,0.2-1.9,3.2,0,3c9.4-0.9,18.4,7,20.6,15.8C55.6,45,39.3,62.4,25,56
			c-5.6-2.5-10.3-5.9-13.1-11.5c-3-5.8-1.7-12.7,0.8-18.5C15.8,18.5,23.7,15,31.5,15C33.4,15,33.4,12,31.5,12L31.5,12z"/>
	</g>
</g>
<g>
	<g>
		<path d="M27,21.5c-2.2,0-5.1,0.7-6.8,2c-2.1,1.7-1.7,4.3,0.1,5.9c0.9,0.8,2,1,3.2,1c1.2,0,2.2,0.1,3.3-0.5
			c2.3-1.4,1.6-4.3,1.6-6.6c0-1.9-3-1.9-3,0c0,0.6,0,1.2,0,1.8c0,0.5,0.2,1.6,0,2.1c-0.2,0.4,0.1,0.1-0.3,0.2c-0.3,0.1-0.5,0-0.8,0
			c-0.6,0-1.4,0.2-1.9-0.1c-1.5-0.9,0-1.8,0.9-2.1c1.1-0.4,2.4-0.8,3.6-0.8C28.9,24.5,28.9,21.5,27,21.5L27,21.5z"/>
	</g>
</g>
<g>
	<g>
		<path d="M24.5,15.4c-0.6-0.4-1.2-0.9-1.8-1.3c-0.3-0.2-0.6,0.3-0.3,0.5c0.6,0.4,1.2,0.8,1.8,1.3C24.5,16.2,24.8,15.7,24.5,15.4
			L24.5,15.4z"/>
	</g>
</g>
<g>
	<g>
		<path d="M25.3,25.5c-0.3,0-0.6,0-0.8,0.2c-0.1,0.2-0.2,0.6,0,0.8c0.3,0.4,1.1,0.3,1.3-0.2c0.2-0.6-0.7-0.9-1.1-0.6
			c-0.2,0.1-0.2,0.5-0.1,0.7c0.2,0.2,0.5,0.3,0.7,0.2c0.4-0.1,0.2-0.6-0.2-0.6c-0.1,0-0.1,0.1-0.1,0.2c0,0,0.1-0.1,0.1-0.1
			c0,0-0.1,0-0.1,0.1c0,0.1-0.1-0.1-0.1,0c0.1,0,0.2,0,0.3,0C25.7,26.1,25.7,25.5,25.3,25.5L25.3,25.5z"/>
	</g>
</g>
<g>
	<g>
		<path d="M19.9,42.2c1.1,5,9,8.4,13.7,7.8c4.6-0.6,11.1-5.9,11.9-10.6c0.1-0.6-0.8-0.8-0.9-0.2c-0.8,4.3-6.1,8.4-10,9.5
			C30.5,49.7,22,47.3,20.8,42C20.7,41.4,19.8,41.7,19.9,42.2L19.9,42.2z"/>
	</g>
</g>
<g>
	<g>
		<path d="M19,42.7c0.3,0,0.6,0,0.9-0.1c0.3-0.1,0.5-0.3,0.8-0.5c0.5-0.3,0-1.1-0.5-0.8c-0.2,0.1-0.4,0.3-0.6,0.4
			c-0.2,0.1-0.5,0.1-0.7,0.1C18.4,41.8,18.4,42.7,19,42.7L19,42.7z"/>
	</g>
</g>
<g>
	<g>
		<path d="M44.2,39.3c0.4,0.4,1,0.5,1.6,0.6c0.6,0.1,0.8-0.8,0.2-0.9c-0.4-0.1-0.9-0.1-1.2-0.4C44.4,38.3,43.8,38.9,44.2,39.3
			L44.2,39.3z"/>
	</g>
</g>
<g>
	<g>
		<path d="M20.8,42.1c0.1-0.1,0.2-0.2,0.4-0.4c0.4-0.4-0.2-1-0.6-0.6c-0.1,0.1-0.2,0.2-0.4,0.4C19.8,41.8,20.4,42.5,20.8,42.1
			L20.8,42.1z"/>
	</g>
</g>
<g>
	<g>
		<path d="M40,21.1c0.9,3-2,4.1-4,5.3c-0.2,0.1-0.2,0.4,0,0.5c0.6,0.3,1.2,0.3,1.8,0.6c1.2,0.5,2.2,1.5,2.5,2.7
			c0.1,0.4,0.7,0.2,0.6-0.2c-0.3-1-0.8-1.8-1.6-2.4c-0.9-0.8-1.9-0.7-2.9-1.2c0,0.2,0,0.3,0,0.5c1.3-0.8,2.7-1.1,3.6-2.5
			c0.7-1.1,1-2.2,0.6-3.5C40.4,20.6,39.8,20.7,40,21.1L40,21.1z"/>
	</g>
</g>
<g>
	<g>
		<path d="M37.5,27.1c2.1-1.6,5.2,0.3,7.2-1.4c0.3-0.3-0.1-0.7-0.4-0.4c-1.1,1-2.9,0.5-4.3,0.6c-0.9,0.1-2,0.2-2.8,0.8
			C36.9,26.8,37.2,27.4,37.5,27.1L37.5,27.1z"/>
	</g>
</g>
<g>
	<g>
		<path d="M12.9,15.5c-1.7,1.5,0.8,4,2.5,2.9c0.9-0.6,0.8-1.8,0.3-2.6c-0.6-1.1-2.1-0.8-3.1-0.8c-0.4,0-0.4,0.6,0,0.6
			c0.7,0,1.4-0.1,2,0.1c0.8,0.2,1.2,1.4,0.7,2.1c-0.9,1.2-3.3-0.6-2-1.8C13.6,15.7,13.2,15.3,12.9,15.5L12.9,15.5z"/>
	</g>
</g>
<g>
	<g>
		<path d="M15,15.1c0.2-1.4,1-2.9,1.6-4.2c0.3-0.8,0.7-1.5,1.1-2.3c0.2-0.3,0.3-0.6,0.5-0.9c2.3-0.5,3,0.5,2.1,2.8
			c-0.1,0.2,0,0.4,0.3,0.5c1.5,0,3.1-1,3.4,1.4c0.2,1.6-1.4,1.5-2.6,1.8c-2,0.4-4.2,0.8-6,1.8c-0.3,0.2,0,0.7,0.3,0.5
			c1.4-0.8,3.3-1.1,4.8-1.5c0.8-0.2,2.8-0.2,3.4-0.6c0.3-0.2,0.4-0.2,0.6-0.5c0.4-0.8,0-2.7-0.7-3.4c-0.9-0.9-2.2-0.1-3.3-0.1
			c0.1,0.2,0.2,0.3,0.3,0.5c0.7-1.2,0.7-2.5-0.3-3.7c-0.6-0.7-1.3-1.2-2.1-0.7c-1.1,0.6-1.7,2.8-2.1,3.8c-0.6,1.4-1.5,3.1-1.8,4.7
			C14.4,15.3,15,15.5,15,15.1L15,15.1z"/>
	</g>
</g>
<g>
	<g>
		<path d="M12.1,16.8c-1.9,0-3.6,0.3-5.4,0.6C5.6,17.6,4,18,3.1,18.9c-1.5,1.6,1,2.4,2.3,2.4c0.3,0,0.5-0.2,0.8-0.1
			c0.3,0.1,0.7,0.9,1,1.2c0.9,1.1,1.1,2.1,2.7,2.3c2.9,0.3,2.9-3.3,3.8-5.1c0.2-0.3-0.3-0.6-0.5-0.3c-0.4,0.9-0.5,1.5-0.8,2.5
			c-0.2,0.6-0.4,1.2-0.8,1.6c-0.8,0.9-1.1,0.8-2.2,0.2c-1-0.6-1.5-1.2-2.2-2.1c-0.2-0.3-0.4-0.8-0.8-0.9c-0.2-0.1-0.3,0.1-0.4,0.1
			c-0.7-0.1-0.5,0.7-1.6,0.1c-0.3-0.4-0.5-0.8-0.8-1.2c0.4-0.2,0.8-0.5,1.2-0.7c2.2-1,5.1-1.3,7.4-1.2
			C12.5,17.4,12.5,16.8,12.1,16.8L12.1,16.8z"/>
	</g>
</g>
<g>
	<g>
		<path d="M11.4,18.2c-0.7,0-1.2,0.2-1.9,0.4c-0.6,0.2-1.2,0.2-1.7,0.6c-0.3,0.2,0,0.7,0.3,0.5c0.5-0.3,1-0.3,1.5-0.5
			c0.6-0.2,1.1-0.4,1.7-0.3C11.8,18.8,11.8,18.2,11.4,18.2L11.4,18.2z"/>
	</g>
</g>
<g>
	<g>
		<path d="M10.3,19.2c-0.2,0.3-0.3,0.5-0.4,0.9c-0.1,0.4,0,0.7-0.3,1.1c-0.2,0.3,0.3,0.6,0.5,0.3c0.4-0.5,0.1-1.3,0.6-1.8
			C11,19.3,10.5,18.9,10.3,19.2L10.3,19.2z"/>
	</g>
</g>
<g>
	<g>
		<path d="M16.3,14c0-0.7,0.3-1.2,0.7-1.7c0.4-0.5,0.7-1,1.1-1.4c0.3-0.3-0.2-0.7-0.4-0.4c-0.5,0.5-0.9,1.2-1.3,1.8
			c-0.4,0.5-0.7,1.2-0.6,1.8C15.7,14.4,16.3,14.4,16.3,14L16.3,14z"/>
	</g>
</g>
<g>
	<g>
		<path d="M17,14.6c1.1-1.3,2.5-1.6,4-2.2c0.4-0.1,0.2-0.7-0.2-0.6c-1.6,0.6-3.1,0.9-4.3,2.3C16.3,14.5,16.7,14.9,17,14.6L17,14.6z"
			/>
	</g>
</g>
<g>
	<g>
		<path d="M12.7,15.6c0.1,0.2-0.3,0.5-0.4,0.6c-0.3,0.3,0.1,0.7,0.4,0.4c0.5-0.4,0.8-0.8,0.4-1.4C12.8,14.9,12.4,15.3,12.7,15.6
			L12.7,15.6z"/>
	</g>
</g>
<g>
	<g>
		<path d="M12.7,15c-0.5,0.5-0.8,1-0.6,1.7c0.2,0.6,0.5,1.3,1,1.7c0.6,0.4,1.3,0.3,1.9,0.1c0.4-0.1,1.1-0.1,1.3-0.6
			c0.1-0.2,0-0.3,0-0.5c0-0.3,0-0.7-0.1-1.1c-0.1-0.5-0.3-1.1-0.8-1.4c-0.4-0.1-0.8-0.1-1.2-0.2c-0.3,0-0.7-0.1-1,0
			c-0.8,0.1-0.9,0.6-1.1,1.3c0.2,0,0.4,0,0.5-0.1c-0.1-0.3-0.1-0.7,0.2-0.9c0.1-0.1,0.4-0.1,0.5-0.1c0.4-0.1,0.7-0.3,1.1-0.2
			c0.8,0.3,1.4,1.2,1.4,2c0,0.4,0.6,0.4,0.6,0c0.1-1.3-1.1-2.8-2.5-2.7c-0.3,0-0.7,0.2-1,0.3c-0.3,0.1-0.5,0.2-0.7,0.4
			c-0.4,0.4-0.3,1.1-0.1,1.5c0.1,0.2,0.5,0.2,0.5-0.1c0.2-0.5,0.2-0.8,0.9-0.9c0.4,0,0.8,0.1,1.2,0.1c0.7,0.1,0.9,0.5,0.9,1.1
			c0,0.2,0.1,0.7,0,0.9c-0.1,0.5-1.4,0.6-1.8,0.5c-0.6-0.1-0.9-0.5-1.1-1c-0.3-0.7-0.3-1.1,0.3-1.6C13.4,15.2,12.9,14.8,12.7,15
			L12.7,15z"/>
	</g>
</g>
<g>
	<g>
		<path d="M40.1,21.4c0.7,0.1,0.4,1.4,0.2,1.8c-0.2,0.5-0.5,0.9-0.9,1.3c-0.9,0.8-2,1.3-3.1,1.5c-0.8,0.2-0.4,1.3,0.3,1.2
			c1.8-0.4,3.8-1.4,4.7-3.1c0.4-0.9,0.7-1.6,0.3-2.6c-0.3-0.7-0.7-1.1-1.5-1.2C39.4,20,39.4,21.3,40.1,21.4L40.1,21.4z"/>
	</g>
</g>
<g>
	<g>
		<path d="M-12.4,4.9C-12.3,4.9-12.3,4.8-12.4,4.9C-12.4,4.8-12.4,4.9-12.4,4.9L-12.4,4.9z"/>
	</g>
</g>
<g>
	<g>
		<path d="M16.9,67.5C16.9,67.5,16.9,67.5,16.9,67.5C16.8,67.5,16.8,67.5,16.9,67.5L16.9,67.5z"/>
	</g>
</g>
<g>
	<g>
		<path d="M41.3,69c-0.2,1.3-2,7.2-0.1,7.8c1.7,0.5,4.8-3.3,4.2-4.9c-0.1-0.2-0.3-0.3-0.5-0.1c-0.8,0.7-1.2,2.8,0,3.2
			c0.5,0.2,2.4-1.2,2.6-1.8c0.4-1.1-0.4-0.8-0.2,0.1c0.1,0.3,0.4,0.3,0.5,0.1c0.5-0.6,1.2-2.1,1.8-1.1c0.1,0.1,0.3,0.2,0.4,0.1
			c0.6-0.4,1-1.2,1.6-1.5c0.6-0.2,0.2-0.5,0.3,0.5c0,0.1,0.1,0.2,0.2,0.2c1.3,0.3,1.2-1.2,2-1.4c0,0,1.8,1.3,2.6,1.1
			c0.2,0,0.3-0.1,0.3-0.3c0.1-0.7-0.4-0.9-0.8-1.5c-0.1-0.2-0.4-0.2-0.5,0c-0.4,0.7-0.8,1.3-1.3,2c-0.2,0.3,0.3,0.6,0.5,0.3
			c0.3-0.5,1-1.6,1-1.6c0.1,0.1,0.2,0.3,0.3,0.4c-0.6-0.3-1.3-0.6-1.9-1c0,0-0.4-0.3-0.3-0.2c-0.2-0.1-0.4,0-0.4,0.2
			c-0.9,0.9-1.3,1.1-1.2,0.6c0-0.1,0-0.3,0-0.4c0-0.2-0.3-0.4-0.5-0.2c-0.6,0.8-1.7,2.5-2.5,1.2c-0.1-0.2-0.3-0.2-0.5-0.1
			c-0.6,0.6-1.4,2.7-1.4,1.1c0-0.4-0.6-0.4-0.6,0c0,1.2-0.6,1.9-1.7,2.4c-0.3-0.6-0.5-1.2-0.7-1.9c-0.1,0-1.8,4.6-3.6,3.6
			c-0.8-0.5,0.4-5.5,0.6-6.6C42,68.7,41.4,68.6,41.3,69L41.3,69z"/>
	</g>
</g>
<g>
	<g>
		<path d="M58,71.1c0.4,0,0.4-0.6,0-0.6C57.6,70.5,57.6,71.1,58,71.1L58,71.1z"/>
	</g>
</g>
</svg>
